# xmcd
#
# Track frame offsets: 
#        150
#        13111
#        26669
#        36411
#        47550
#        59794
#        72849
#        87295
#        95320
#        108143
#        122356
#        132292
#        141058
#        153117
#        155868
#
# Disc length: 2232 seconds
#
# Revision: 0
# Processed by: cddbd v1.5.2PL0 Copyright (c) Steve Scherf et al.
# Submitted via: ExactAudioCopy v0.95b4
#
DISCID=c508b60f
DTITLE=Freddy Fender - The Man From South of the Border
DYEAR=1900
DGENRE=Country
TTITLE0=Donna
TTITLE1=Just Because
TTITLE2=Running Back
TTITLE3=The Rains Game
TTITLE4=You'll Lose a Good Thing
TTITLE5=Mean Woman Blues
TTITLE6=Jambalaya
TTITLE7=Breaking Up is Hard To Do
TTITLE8=Almost Persuaded
TTITLE9=Jamaica Farewell
TTITLE10=But I Do
TTITLE11=Just A Little Bit
TTITLE12=Ooh Po Pah Do
TTITLE13=What'd I Say
TTITLE14=Coming Home Soon
EXTD=
EXTT0=
EXTT1=
EXTT2=
EXTT3=
EXTT4=
EXTT5=
EXTT6=
EXTT7=
EXTT8=
EXTT9=
EXTT10=
EXTT11=
EXTT12=
EXTT13=
EXTT14=
PLAYORDER=
